# xmcd
#
# Track frame offsets:
#	150
#	12945
#	29123
#	48325
#	68665
#	81985
#	95255
#	112655
#	132558
#	150565
#	165658
#	181170
#	201060
#	217238
#	232675
#	249160
#	265180
#	283538
#	301375
#
# Disc length: 4252
#
# Revision: 3
# Processed by: cddbd v1.5.1PL0 Copyright (c) Steve Scherf et al.
# Submitted via: CDex 1.40Beta8
# Normalized: r1:DSETVAR1,TDELIM( - ),TSWAP
#
DISCID=f9109a13
DTITLE=Various Artist - Top Hits USA RC24
DYEAR=1994
DGENRE=Country
TTITLE0=Neal McCoy - Wink
TTITLE1=Reba McEntire - Why Haven't I Heard From You
TTITLE2=Tim McGraw - Don't Take The Girl
TTITLE3=Patty Loveless - How Can I Help Say Goodbye
TTITLE4=George Strait - Lovebug
TTITLE5=Clay Walker (Single Version) - Live Until I Die
TTITLE6=Confederate Railroad - Daddy Never Was The Cadillac Kind
TTITLE7=Vince Gill - Whenever You Come Around
TTITLE8=John Michael Montgomery - Rope The Moon
TTITLE9=Mary Chapin-Carpenter - I Take My Chances
TTITLE10=Boy Howdy - They Don't Make 'em Like That Anymore
TTITLE11=Travis Tritt (Single) - Foolish Pride
TTITLE12=Blackhawk - Every Once In Awhile
TTITLE13=Kathy Mattea - Walking Away A Winner
TTITLE14=Brooks and Dunn - That Ain't No Way To Go
TTITLE15=Toby Keith - Wish I Didn't Know Now
TTITLE16=Collin Raye - Little Rock
TTITLE17=Pam Tillis - Spilled Perfume
TTITLE18=Clay Walker - Where Do I Fit In The Picture
EXTD=YEAR: 1994 ID3G: 2
EXTT0=
EXTT1=
EXTT2=
EXTT3=
EXTT4=
EXTT5=
EXTT6=
EXTT7=
EXTT8=
EXTT9=
EXTT10=
EXTT11=
EXTT12=
EXTT13=
EXTT14=
EXTT15=
EXTT16=
EXTT17=
EXTT18=
PLAYORDER=
